P3
3 3
9
 4 4 4  1 1 1  5 5 5 
 3 3 3  4 4 4  4 4 4 
 6 6 6  0 0 0  1 1 1 
