P3
3 3
9
 3 3 3  2 2 2  0 0 0 
 0 0 0  9 9 9  2 2 2 
 3 3 3  0 0 0  3 3 3 
