P3
3 3
9
 5 5 5  2 2 2  7 7 7 
 5 5 5  9 9 9  5 5 5 
 8 8 8  2 2 2  3 3 3 
