P3
3 3
9
 5 5 5  1 1 1  7 7 7 
 4 4 4  3 3 3  5 5 5 
 8 8 8  1 1 1  1 1 1 
