P3
3 3
9
 1 1 1  0 0 0  6 6 6 
 5 5 5  8 8 8  1 1 1 
 1 1 1  2 2 2  2 2 2 
