P3
3 3
9
 0 7 6  2 1 0  3 5 1 
 2 5 1  9 3 8  0 4 5 
 3 1 2  0 1 2  3 8 1 
