P3
3 3
9
 5 4 3  1 1 1  6 5 4 
 4 3 2  7 6 5  4 4 3 
 7 6 5  1 1 0  2 2 1 
