P3
3 3
9
 3 5 1  2 1 0  0 7 6 
 0 4 5  9 3 8  2 5 1 
 3 8 1  0 1 2  3 1 2 
